# xmcd
#
# Track frame offsets:
#       150
#       10924
#       21884
#       39046
#       45852
#       61306
#       82066
#       98656
#       112827
#       136916
#       149624
#       177032
#
# Disc length: 4609 seconds
#
# Revision: 0
# Processed by: cddbd v1.5.2PL0 Copyright (c) Steve Scherf et al.
# Submitted via: WaveLab 4.01
#
DISCID=8b11ff0c
DTITLE=The Riffsurfers - Left Untidy?
DYEAR=2006
DGENRE=
TTITLE0=Rock'n'Roll Girl
TTITLE1=Old John's Odd Meter Blues
TTITLE2=Rich Man's Holiday
TTITLE3=Some Kind Of Blissful Sensation
TTITLE4=Attic Blues
TTITLE5=Instant Funk
TTITLE6=Pure Love
TTITLE7=Predator Lady
TTITLE8=Dressed In Green
TTITLE9=The Day's Smile
TTITLE10=Latin Stuff
TTITLE11=Driving Home
EXTD=
EXTT0=
EXTT1=
EXTT2=
EXTT3=
EXTT4=
EXTT5=
EXTT6=
EXTT7=
EXTT8=
EXTT9=
EXTT10=
EXTT11=
PLAYORDER=
